# File created by Blade
# Date/Time:  Tue Jan 27 18:05:51 2015
#---------------------------------------------------------
:version 1.10
:name HOM
:units
  mass 1.0
  length 1.000000
  angle deg
:documentation
     Acclaim Skeleton File
:root
   axis xyz
   order TX TY TZ RX RY RZ
   position 0.000000 0.000000 0.000000
   orientation 0 0 0
:bonedata
   begin
      id 1
      name Spine_dum
      direction 0.000000 1.000000 0.000000
      length 5.195262
      axis 0.0 0.0 0.0 xyz
   end
   begin
      id 2
      name LeftUpLeg_dum
      direction 1.000000 0.000000 0.000000
      length 3.351363
      axis 0.0 0.0 0.0 xyz
   end
   begin
      id 3
      name RightUpLeg_dum
      direction -1.000000 0.000000 0.000000
      length 3.351363
      axis 0.0 0.0 0.0 xyz
   end
   begin
      id 4
      name Spine
      direction 0.000000 1.000000 0.000000
      length 0.000000
      axis 0.0 0.0 0.0 xyz
      dof rx ry rz
   end
   begin
      id 5
      name Spine_dum1
      direction 0.000000 1.000000 0.000000
      length 15.653875
      axis 0.0 0.0 0.0 xyz
   end
   begin
      id 6
      name Spine_dum2
      direction 0.000000 1.000000 0.000000
      length 10.329768
      axis 0.0 0.0 0.0 xyz
   end
   begin
      id 7
      name Spine_dum3
      direction 0.000000 1.000000 0.000000
      length 10.329768
      axis 0.0 0.0 0.0 xyz
   end
   begin
      id 8
      name Head
      direction 0.000000 1.000000 0.000000
      length 4.527550
      axis 0.0 0.0 0.0 xyz
      dof rx ry rz
   end
   begin
      id 9
      name LeftShoulder
      direction 1.000000 0.000000 0.000000
      length 6.996006
      axis 0.0 0.0 -90.0 xyz
      dof rx ry rz
   end
   begin
      id 10
      name LeftArm
      direction 1.000000 0.000000 0.000000
      length 10.209302
      axis 0.0 0.0 -90.0 xyz
      dof rx ry rz
   end
   begin
      id 11
      name LeftForeArm
      direction 1.000000 0.000000 0.000000
      length 8.563163
      axis 0.0 0.0 -90.0 xyz
      dof ry rz rx
   end
   begin
      id 12
      name LeftHand
      direction 0.000000 0.000000 0.000000
      length 0.000000
      axis 0.0 0.0 -90.0 xyz
      dof rx ry rz
   end
   begin
      id 13
      name LeftHand_dum1
      direction 0.000000 0.000000 0.000000
      length 0.000000
      axis 0.0 0.0 -90.0 xyz
   end
   begin
      id 14
      name LeftHand_dum2
      direction 1.000000 0.000000 0.000000
      length 3.937000
      axis 0.0 0.0 -90.0 xyz
   end
   begin
      id 15
      name LeftHandThumb1
      direction 0.000000 0.000000 1.000000
      length 3.937000
      axis 0.0 0.0 -90.0 xyz
      dof rx rz ry
   end
   begin
      id 16
      name RightShoulder
      direction -1.000000 0.000000 0.000000
      length 6.996006
      axis 0.0 0.0 90.0 xyz
      dof rx ry rz
   end
   begin
      id 17
      name RightArm
      direction -1.000000 0.000000 0.000000
      length 10.209302
      axis 0.0 0.0 90.0 xyz
      dof rx ry rz
   end
   begin
      id 18
      name RightForeArm
      direction -1.000000 0.000000 0.000000
      length 8.563163
      axis 0.0 0.0 90.0 xyz
      dof ry rz rx
   end
   begin
      id 19
      name RightHand
      direction 0.000000 0.000000 0.000000
      length 0.000000
      axis 0.0 0.0 90.0 xyz
      dof rx ry rz
   end
   begin
      id 20
      name RightHand_dum1
      direction 0.000000 0.000000 0.000000
      length 0.000000
      axis 0.0 0.0 90.0 xyz
   end
   begin
      id 21
      name RightHand_dum2
      direction -1.000000 0.000000 0.000000
      length 3.937000
      axis 0.0 0.0 90.0 xyz
   end
   begin
      id 22
      name RightHandThumb1
      direction 0.000000 0.000000 1.000000
      length 3.937000
      axis 0.0 0.0 90.0 xyz
      dof rx rz ry
   end
   begin
      id 23
      name LeftUpLeg
      direction 0.000000 -1.000000 0.000000
      length 16.346831
      axis 0.0 0.0 0.0 xyz
      dof rx ry rz
   end
   begin
      id 24
      name LeftLeg
      direction 0.000000 -1.000000 0.000000
      length 13.959795
      axis 0.0 0.0 0.0 xyz
      dof rx ry rz
   end
   begin
      id 25
      name LeftFoot
      direction 0.000000 -0.258819 0.965926
      length 5.165550
      axis 15.0 0.0 0.0 xyz
      dof rx ry rz
   end
   begin
      id 26
      name LeftToeBase
      direction 0.000000 0.000000 1.000000
      length 2.952750
      axis 0.0 0.0 0.0 xyz
      dof rx ry rz
   end
   begin
      id 27
      name RightUpLeg
      direction 0.000000 -1.000000 0.000000
      length 16.346831
      axis 0.0 0.0 0.0 xyz
      dof rx ry rz
   end
   begin
      id 28
      name RightLeg
      direction 0.000000 -1.000000 0.000000
      length 13.959795
      axis 0.0 0.0 0.0 xyz
      dof rx ry rz
   end
   begin
      id 29
      name RightFoot
      direction 0.000000 -0.258819 0.965926
      length 5.165550
      axis 15.0 0.0 0.0 xyz
      dof rx ry rz
   end
   begin
      id 30
      name RightToeBase
      direction 0.000000 0.000000 1.000000
      length 2.952750
      axis 0.0 0.0 0.0 xyz
      dof rx ry rz
   end
:hierarchy
   begin
      root Spine_dum LeftUpLeg_dum RightUpLeg_dum
      Spine_dum Spine
      LeftUpLeg_dum LeftUpLeg
      RightUpLeg_dum RightUpLeg
      Spine Spine_dum1 Spine_dum2 Spine_dum3
      Spine_dum1 Head
      Spine_dum2 LeftShoulder
      Spine_dum3 RightShoulder
      LeftShoulder LeftArm
      LeftArm LeftForeArm
      LeftForeArm LeftHand
      LeftHand LeftHand_dum1 LeftHand_dum2
      LeftHand_dum1 LeftHandThumb1
      RightShoulder RightArm
      RightArm RightForeArm
      RightForeArm RightHand
      RightHand RightHand_dum1 RightHand_dum2
      RightHand_dum1 RightHandThumb1
      LeftUpLeg LeftLeg
      LeftLeg LeftFoot
      LeftFoot LeftToeBase
      RightUpLeg RightLeg
      RightLeg RightFoot
      RightFoot RightToeBase
   end

# File created by Blade
# Date/Time:  Tue Jan 27 18:05:41 2015
# Frame Rate: 120.000 fps
#------------------------------------------------------
:FULLY-SPECIFIED
:DEGREES
1754
root -1.373333 31.925964 -6.184383 7.728402 24.863830 5.428350
Spine -7.674858 0.904243 -4.727899
Head -5.772093 -24.768376 -4.281649
LeftShoulder -8.585723 14.822470 5.425336
LeftArm 25.315377 40.661359 -69.434674
LeftForeArm -3.220982 0.000000 15.149529
LeftHand -10.786386 -0.000000 -5.971771
LeftHandThumb1 -26.253704 0.000000 33.147579
RightShoulder -1.017130 36.868608 -43.128468
RightArm 91.711865 43.754091 129.889496
RightForeArm 48.875606 -0.000000 146.715353
RightHand 7.609221 -0.000000 18.932339
RightHandThumb1 -24.326973 -0.000000 -32.862282
LeftUpLeg -3.839992 -11.272170 -0.861918
LeftLeg 0.879093 -0.000000 -0.000000
LeftFoot -12.561153 10.437965 -23.833841
LeftToeBase 8.518562 -0.000000 -0.000000
RightUpLeg 4.127091 -14.382829 -3.756797
RightLeg -3.807423 -0.000000 0.000000
RightFoot -17.938031 -20.995882 12.489647
RightToeBase 5.367289 -0.000000 -0.000000
1755
root -1.368785 31.924058 -6.182401 7.731618 24.891359 5.441797
Spine -7.653922 0.919608 -4.748577
Head -5.779440 -24.794813 -4.273449
LeftShoulder -8.618321 14.801887 5.442957
LeftArm 25.312935 40.663840 -69.483577
LeftForeArm -3.228385 0.000000 15.128324
LeftHand -10.800484 -0.000000 -6.009849
LeftHandThumb1 -26.253704 0.000000 33.147579
RightShoulder -1.068849 36.596027 -43.185309
RightArm 91.817196 43.654091 129.850202
RightForeArm 48.403305 -0.000000 145.828298
RightHand 7.246246 -0.000000 19.088616
RightHandThumb1 -24.326973 -0.000000 -32.862282
LeftUpLeg -3.816153 -11.339322 -0.871192
LeftLeg 0.840541 -0.000000 -0.000000
LeftFoot -12.564681 10.463026 -23.845883
LeftToeBase 8.470984 -0.000000 -0.000000
RightUpLeg 4.150964 -14.403599 -3.774546
RightLeg -3.823198 -0.000000 0.000000
RightFoot -17.945806 -21.004250 12.481367
RightToeBase 5.376204 -0.000000 -0.000000
1756
root -1.365114 31.922935 -6.181369 7.747317 24.922415 5.452502
Spine -7.666532 0.918391 -4.760572
Head -5.772884 -24.844843 -4.269995
LeftShoulder -8.614677 14.817512 5.461480
LeftArm 25.285866 40.627480 -69.552236
LeftForeArm -3.168106 -0.000000 15.129057
LeftHand -10.836872 -0.000000 -5.982656
LeftHandThumb1 -26.253704 0.000000 33.147579
RightShoulder -1.077641 36.311532 -43.233188
RightArm 91.826596 43.567955 129.612541
RightForeArm 47.845890 0.000000 144.799342
RightHand 7.025289 -0.000000 19.283361
RightHandThumb1 -24.326973 -0.000000 -32.862282
LeftUpLeg -3.831804 -11.324379 -0.885981
LeftLeg 0.856797 -0.000000 -0.000000
LeftFoot -12.571161 10.430585 -23.824618
LeftToeBase 8.494910 -0.000000 -0.000000
RightUpLeg 4.156366 -14.418350 -3.785052
RightLeg -3.836864 -0.000000 0.000000
RightFoot -17.958769 -21.016562 12.484620
RightToeBase 5.403632 -0.000000 -0.000000
1757
root -1.357681 31.922648 -6.180390 7.769168 24.944963 5.489864
Spine -7.659822 0.931752 -4.784811
Head -5.794038 -24.840438 -4.271292
LeftShoulder -8.640731 14.829115 5.455417
LeftArm 25.289535 40.608994 -69.583499
LeftForeArm -3.149129 0.000000 15.122454
LeftHand -10.810851 -0.000000 -5.973884
LeftHandThumb1 -26.253704 0.000000 33.147579
RightShoulder -1.191613 36.409224 -43.332279
RightArm 91.274694 43.651971 128.911188
RightForeArm 47.422825 -0.000000 143.689762
RightHand 6.668792 -0.000000 19.467321
RightHandThumb1 -24.326973 -0.000000 -32.862282
LeftUpLeg -3.780491 -11.529402 -0.906519
LeftLeg 0.740844 -0.000000 -0.000000
LeftFoot -12.571052 10.556358 -23.939714
LeftToeBase 8.515596 -0.000000 -0.000000
RightUpLeg 4.168882 -14.437032 -3.830894
RightLeg -3.845773 -0.000000 0.000000
RightFoot -17.965346 -21.009269 12.490976
RightToeBase 5.379724 -0.000000 -0.000000
1758
root -1.353267 31.921727 -6.178621 7.773098 24.978653 5.486498
Spine -7.651437 0.930309 -4.766511
Head -5.802153 -24.816429 -4.296330
LeftShoulder -8.664169 14.823463 5.454035
LeftArm 25.278169 40.622516 -69.617622
LeftForeArm -3.187912 -0.000000 15.114915
LeftHand -10.847703 -0.000000 -5.968463
LeftHandThumb1 -26.253704 0.000000 33.147579
RightShoulder -1.254107 36.352757 -43.455430
RightArm 90.974889 43.713350 128.424150
RightForeArm 47.046929 -0.000000 142.482179
RightHand 6.143691 0.000000 19.357890
RightHandThumb1 -24.326973 -0.000000 -32.862282
LeftUpLeg -3.759847 -11.585558 -0.904973
LeftLeg 0.693825 -0.000000 -0.000000
LeftFoot -12.583131 10.589018 -23.937691
LeftToeBase 8.547506 -0.000000 -0.000000
RightUpLeg 4.177245 -14.488788 -3.832247
RightLeg -3.848740 -0.000000 0.000000
RightFoot -17.963442 -20.982587 12.499684
RightToeBase 5.338900 -0.000000 -0.000000
1759
root -1.348696 31.921518 -6.176939 7.792230 25.012654 5.506971
Spine -7.657848 0.912906 -4.784474
Head -5.818587 -24.881966 -4.253574
LeftShoulder -8.667069 14.833423 5.473121
LeftArm 25.246247 40.606842 -69.677013
LeftForeArm -3.180266 -0.000000 15.105654
LeftHand -10.794596 -0.000000 -5.967549
LeftHandThumb1 -26.253704 0.000000 33.147579
RightShoulder -1.292194 36.081659 -43.526518
RightArm 90.822250 43.639417 127.933785
RightForeArm 46.673828 -0.000000 141.148829
RightHand 5.877880 -0.000000 19.138831
RightHandThumb1 -24.326973 -0.000000 -32.862282
LeftUpLeg -3.770065 -11.589108 -0.924026
LeftLeg 0.698943 -0.000000 -0.000000
LeftFoot -12.561474 10.553395 -23.939850
LeftToeBase 8.517364 -0.000000 -0.000000
RightUpLeg 4.189268 -14.492271 -3.853390
RightLeg -3.868725 -0.000000 0.000000
RightFoot -17.963950 -21.011419 12.501107
RightToeBase 5.332650 -0.000000 -0.000000
1760
root -1.340190 31.921183 -6.171320 7.799979 25.041847 5.512993
Spine -7.679634 0.904296 -4.774983
Head -5.800343 -24.891254 -4.260204
LeftShoulder -8.691270 14.873899 5.476092
LeftArm 25.234175 40.592642 -69.724595
LeftForeArm -3.168207 -0.000000 15.099897
LeftHand -10.800755 -0.000000 -5.951491
LeftHandThumb1 -26.253704 0.000000 33.147579
RightShoulder -1.325798 35.831453 -43.649058
RightArm 90.676376 43.624255 127.518809
RightForeArm 46.366083 -0.000000 139.701429
RightHand 5.372720 0.000000 18.861742
RightHandThumb1 -24.326973 -0.000000 -32.862282
LeftUpLeg -3.743862 -11.606979 -0.941526
LeftLeg 0.656349 -0.000000 -0.000000
LeftFoot -12.546792 10.576895 -23.886673
LeftToeBase 8.505147 -0.000000 -0.000000
RightUpLeg 4.209167 -14.554291 -3.869972
RightLeg -3.872956 -0.000000 0.000000
RightFoot -17.980334 -20.973988 12.537835
RightToeBase 5.373295 -0.000000 -0.000000
1761
root -1.335574 31.921340 -6.168692 7.809540 25.075596 5.517742
Spine -7.682416 0.874568 -4.767261
Head -5.828803 -24.906404 -4.253750
LeftShoulder -8.713994 14.885973 5.483672
LeftArm 25.201099 40.570560 -69.781931
LeftForeArm -3.175152 -0.000000 15.089304
LeftHand -10.889584 -0.000000 -5.843947
LeftHandThumb1 -26.253704 0.000000 33.147579
RightShoulder -1.398768 35.658202 -43.782160
RightArm 90.379507 43.613680 126.936436
RightForeArm 45.963987 -0.000000 138.140246
RightHand 4.959967 0.000000 18.492384
RightHandThumb1 -24.326973 -0.000000 -32.862282
LeftUpLeg -3.742640 -11.611922 -0.945745
LeftLeg 0.652295 -0.000000 -0.000000
LeftFoot -12.534915 10.533607 -23.903929
LeftToeBase 8.510119 -0.000000 -0.000000
RightUpLeg 4.217450 -14.569970 -3.877006
RightLeg -3.876099 -0.000000 0.000000
RightFoot -17.974876 -20.990515 12.527724
RightToeBase 5.369128 -0.000000 -0.000000
1762
root -1.330507 31.921822 -6.167005 7.827399 25.119723 5.528604
Spine -7.690610 0.836715 -4.765949
Head -5.816702 -24.861158 -4.258460
LeftShoulder -8.712280 14.888030 5.497369
LeftArm 25.131538 40.544163 -69.852945
LeftForeArm -3.144204 -0.000000 15.108969
LeftHand -10.880564 -0.000000 -5.815261
LeftHandThumb1 -26.253704 0.000000 33.147579
RightShoulder -1.494398 35.594714 -43.931134
RightArm 89.911709 43.640645 126.234165
RightForeArm 45.714406 -0.000000 136.446701
RightHand 4.590641 0.000000 18.177431
RightHandThumb1 -24.326973 -0.000000 -32.862282
LeftUpLeg -3.748458 -11.630987 -0.958747
LeftLeg 0.639102 -0.000000 -0.000000
LeftFoot -12.504976 10.542771 -23.863116
LeftToeBase 8.452158 -0.000000 -0.000000
RightUpLeg 4.217463 -14.575315 -3.888254
RightLeg -3.873455 -0.000000 0.000000
RightFoot -17.986151 -21.017086 12.563083
RightToeBase 5.341507 -0.000000 -0.000000
